<svg width="60" height="60" viewBox="0 0 60 60" fill="none" xmlns="http://www.w3.org/2000/svg">
<circle cx="30" cy="30" r="30" fill="#F6F6F6"/>
<path d="M42.6562 24.9947H17.3438V28.0269H42.6562V24.9947Z" fill="#FF7400"/>
<path d="M42.648 23.9403C42.6055 22.5213 41.4485 21.3821 40.0192 21.3821H19.9802C18.5508 21.3821 17.3938 22.5213 17.3513 23.9403H42.648Z" fill="#FF7400"/>
<path d="M17.3438 29.0814V35.9807C17.3438 37.437 18.5242 38.6174 19.9805 38.6174H40.0195C41.4757 38.6174 42.6562 37.437 42.6562 35.9807V29.0814H17.3438ZM36.2264 32.6533H37.281V33.708H36.2264V32.6533ZM33.5896 32.6533H34.6443V33.708H33.5896V32.6533ZM39.9178 36.1717H29.1072V35.117H39.9178V36.1717ZM39.9178 33.708H38.8631V32.6533H39.9178V33.708Z" fill="#FF7400"/>
</svg>
