<svg width="41" height="40" viewBox="0 0 41 40" fill="none" xmlns="http://www.w3.org/2000/svg">
<circle cx="20.4805" cy="20" r="20" fill="#F6F6F6"/>
<path d="M18.3821 25.0698C18.0484 25.2888 17.7434 25.5486 17.4742 25.8432C16.2916 26.9165 15.12 28.0017 13.9412 29.0791C13.9051 29.1416 13.852 29.1925 13.7881 29.226C13.7241 29.2595 13.652 29.2741 13.5801 29.2681L19.0552 10.1379C19.8695 11.6693 20.6424 13.1227 21.4152 14.5761C22.2286 16.1407 23.0272 17.7134 23.8661 19.2643C23.9192 19.3283 23.9579 19.4029 23.9797 19.4832C24.0015 19.5634 24.0059 19.6474 23.9926 19.7294C23.9792 19.8115 23.9485 19.8897 23.9024 19.9589C23.8563 20.0281 23.796 20.0867 23.7254 20.1306C21.9516 21.7306 20.2024 23.3578 18.4448 24.9758C18.4336 24.9776 18.4229 24.9817 18.4133 24.9878C18.4037 24.9939 18.3954 25.0019 18.3889 25.0112C18.3825 25.0206 18.3779 25.0311 18.3756 25.0422C18.3733 25.0534 18.3732 25.0649 18.3754 25.076L18.3821 25.0698Z" fill="#FE7A09"/>
<path d="M18.445 24.9761C20.2026 23.3582 21.9518 21.7309 23.7256 20.1309C23.7962 20.087 23.8565 20.0285 23.9026 19.9593C23.9487 19.8901 23.9794 19.8118 23.9928 19.7298C24.0061 19.6477 24.0017 19.5637 23.9799 19.4835C23.9581 19.4033 23.9194 19.3287 23.8663 19.2646C23.0274 17.7138 22.2288 16.1411 21.4154 14.5764C21.7514 13.4345 22.0873 12.2926 22.4233 11.1507C22.4561 11.0394 22.4888 10.9281 22.5221 10.8147C22.5717 10.8272 22.6162 10.8546 22.6496 10.8934C22.683 10.9321 22.7036 10.9801 22.7086 11.031C24.2858 14.0384 25.8624 17.046 27.4384 20.054C27.4705 20.0911 27.4944 20.1346 27.5085 20.1817C27.5227 20.2287 27.5267 20.2782 27.5204 20.3269C27.514 20.3756 27.4975 20.4224 27.4718 20.4642C27.4461 20.5061 27.4118 20.542 27.3713 20.5697C24.0053 23.6434 20.6441 26.7223 17.2878 29.8066C17.2588 29.8344 17.2242 29.8557 17.1865 29.8694C17.1487 29.8831 17.1085 29.8888 17.0684 29.8861C17.1805 29.4876 17.2912 29.0886 17.4051 28.6905C17.7187 27.594 18.0358 26.4984 18.3449 25.4005C18.3761 25.3521 18.3958 25.297 18.4022 25.2397C18.4087 25.1824 18.4019 25.1244 18.3823 25.0702L18.3756 25.0764C18.4667 25.09 18.4392 25.0215 18.445 24.9761Z" fill="#028C3C"/>
<path d="M18.4441 24.9761C18.4382 25.0215 18.4657 25.09 18.3746 25.0764C18.3724 25.0652 18.3725 25.0538 18.3749 25.0426C18.3772 25.0315 18.3817 25.021 18.3882 25.0116C18.3947 25.0023 18.4029 24.9943 18.4125 24.9882C18.4221 24.9821 18.4329 24.978 18.4441 24.9761Z" fill="#FEFEFE"/>
</svg>
