<svg width="48" height="48" viewBox="0 0 48 48" fill="none" xmlns="http://www.w3.org/2000/svg">
<circle cx="24" cy="24" r="24" fill="#F6F6F6"/>
<path d="M28.5168 23.6001C25.6982 23.6001 23.1688 21.7821 22.3662 19.1789C22.2122 18.6794 22.3125 18.1495 22.6415 17.7242C23.072 17.1651 23.8327 16.9097 24.5152 17.1066C27.2148 17.8806 29.1002 20.3196 29.1002 23.0376C29.1002 23.3481 28.8388 23.6001 28.5168 23.6001ZM24.0333 18.163C23.8607 18.163 23.6892 18.2507 23.576 18.397C23.513 18.478 23.4173 18.6456 23.4838 18.8582C24.0812 20.7944 25.8452 22.1995 27.895 22.4391C27.6477 20.4636 26.1905 18.7604 24.1815 18.1844C24.1325 18.1709 24.0823 18.163 24.0333 18.163Z" fill="#E35353"/>
<path d="M28.5168 23.6C28.1948 23.6 27.9334 23.348 27.9334 23.0375C27.9334 20.3195 29.8188 17.8805 32.5184 17.1065C33.2009 16.9096 33.9604 17.1661 34.3921 17.7241C34.7211 18.1494 34.8214 18.6803 34.6674 19.1787C33.8648 21.782 31.3354 23.6 28.5168 23.6ZM33.0003 18.1628C32.9513 18.1628 32.9011 18.1707 32.8509 18.1842C30.8431 18.7602 29.3848 20.4624 29.1374 22.439C31.1873 22.2005 32.9524 20.7953 33.5486 18.8581C33.6151 18.6455 33.5194 18.4779 33.4564 18.3969C33.3444 18.2506 33.1729 18.1628 33.0003 18.1628Z" fill="#DD1C1C"/>
<path d="M28.5168 32.6001C28.1948 32.6001 27.9334 32.3481 27.9334 32.0376V15.1626C27.9334 14.8521 28.1948 14.6001 28.5168 14.6001C28.8388 14.6001 29.1001 14.8521 29.1001 15.1626V32.0376C29.1001 32.3481 28.8388 32.6001 28.5168 32.6001Z" fill="#DD1C1C"/>
<path d="M25.0165 26.9751C24.8672 26.9751 24.7178 26.92 24.6035 26.8108C24.376 26.5915 24.376 26.2348 24.6035 26.0155L28.1035 22.6405C28.331 22.4211 28.7008 22.4211 28.9283 22.6405C29.1558 22.8598 29.1558 23.2165 28.9283 23.4358L25.4283 26.8108C25.3152 26.92 25.1658 26.9751 25.0165 26.9751Z" fill="#E35353"/>
<path d="M32.0165 26.9751C31.8672 26.9751 31.7178 26.92 31.6035 26.8108L28.1035 23.4358C27.876 23.2165 27.876 22.8598 28.1035 22.6405C28.331 22.4211 28.7008 22.4211 28.9283 22.6405L32.4283 26.0155C32.6558 26.2348 32.6558 26.5915 32.4283 26.8108C32.3152 26.92 32.1658 26.9751 32.0165 26.9751Z" fill="#E35353"/>
<path d="M37.0376 23.6001H11.1626C10.8521 23.6001 10.6001 23.3761 10.6001 23.1001C10.6001 22.8241 10.8521 22.6001 11.1626 22.6001H37.0376C37.3481 22.6001 37.6001 22.8241 37.6001 23.1001C37.6001 23.3761 37.3481 23.6001 37.0376 23.6001Z" fill="#DD1C1C"/>
<path d="M34.6834 32.6001H12.5168C10.9079 32.6001 9.6001 31.3378 9.6001 29.7876V17.4126C9.6001 15.8623 10.9079 14.6001 12.5168 14.6001H34.6834C36.2923 14.6001 37.6001 15.8623 37.6001 17.4126V29.7876C37.6001 31.3378 36.2923 32.6001 34.6834 32.6001ZM12.5168 15.7251C11.5519 15.7251 10.7668 16.4822 10.7668 17.4126V29.7876C10.7668 30.718 11.5519 31.4751 12.5168 31.4751H34.6834C35.6483 31.4751 36.4334 30.718 36.4334 29.7876V17.4126C36.4334 16.4822 35.6483 15.7251 34.6834 15.7251H12.5168Z" fill="black"/>
</svg>
