<svg width="61" height="60" viewBox="0 0 61 60" fill="none" xmlns="http://www.w3.org/2000/svg">
<circle cx="30.4805" cy="30" r="30" fill="#F6F6F6"/>
<path d="M42.5903 25.157C42.7661 25.0163 42.854 24.946 42.9419 24.8757C44.1635 23.8386 45.728 23.9529 46.7739 25.1833C46.8794 25.3064 46.9321 25.3152 47.0376 25.2097C47.1079 25.1306 47.187 25.0691 47.2573 24.99C48.0747 24.1902 49.1557 23.9529 50.1665 24.4011C51.2299 24.8757 51.8012 25.7107 51.81 26.8796C51.8276 29.4021 51.8188 31.9157 51.8188 34.4382C51.8188 35.3347 51.2651 35.8972 50.3774 35.8972C50.0258 35.8972 49.6743 35.8708 49.3227 35.906C48.9624 35.9411 48.8569 35.8269 48.8569 35.4489C48.8745 32.988 48.8657 30.5271 48.8657 28.0661C48.8657 27.9607 48.8657 27.864 48.8657 27.7585C48.8569 27.1872 48.6284 26.9499 48.0835 26.9235C47.5913 26.8972 47.2485 27.196 47.1958 27.697C47.187 27.8112 47.1958 27.9343 47.1958 28.0485C47.1958 30.1755 47.1958 32.2937 47.1958 34.4206C47.1958 35.3522 46.6596 35.8972 45.728 35.8884C45.2534 35.8796 44.6118 36.0993 44.3393 35.7917C44.102 35.528 44.2602 34.904 44.2602 34.4382C44.2602 32.2585 44.2602 30.07 44.2602 27.8903C44.2602 27.1169 43.7593 26.7214 43.1089 26.9851C42.7046 27.1521 42.5727 27.4773 42.5727 27.8991C42.5815 29.9382 42.5727 31.9685 42.5727 34.0075C42.5727 34.1657 42.5727 34.3327 42.5727 34.4909C42.5464 35.3435 42.0014 35.8796 41.1577 35.8884C40.8061 35.8972 40.4546 35.862 40.103 35.8972C39.7251 35.9323 39.6108 35.8269 39.6196 35.4226C39.6372 31.9685 39.6284 28.5144 39.6284 25.0515C39.6284 24.9021 39.6372 24.7614 39.6284 24.612C39.6108 24.4187 39.6899 24.3571 39.8833 24.3571C40.6919 24.3659 41.4917 24.3659 42.3003 24.3571C42.5024 24.3571 42.5991 24.4099 42.5815 24.6296C42.5639 24.7878 42.5815 24.9284 42.5903 25.157Z" fill="#02B9EF"/>
<path d="M23.9573 29.9197C23.9573 31.1238 23.9573 32.3191 23.9573 33.5232C23.9485 35.0877 23.1311 35.8963 21.5667 35.905C20.8811 35.905 20.1868 35.9138 19.5012 35.905C18.1126 35.8875 17.093 34.9646 17.0227 33.5759C16.97 32.5828 16.9612 31.5808 17.0139 30.5877C17.0843 29.1638 18.1741 28.1619 19.6155 28.1443C19.9934 28.1355 20.3802 28.1443 20.7581 28.1443C21.1272 28.1355 21.2679 27.9246 21.2591 27.573C21.2591 27.2214 21.1009 27.0632 20.7493 27.0808C20.3538 27.0896 19.9583 27.0896 19.5628 27.0808C18.596 27.0632 18.0598 26.5359 18.0686 25.5867C18.0686 25.2 17.8929 24.6814 18.1477 24.4529C18.3675 24.2595 18.8684 24.3826 19.2464 24.3826C20.2307 24.3738 21.2063 24.3826 22.1907 24.3826C23.2366 24.3826 23.9485 25.0945 23.9573 26.1492C23.9661 27.3972 23.9573 28.6629 23.9573 29.9197ZM21.2678 31.9148C21.2678 31.7654 21.2678 31.6248 21.2678 31.4754C21.2678 30.5789 21.2678 30.5789 20.3714 30.614C19.9231 30.6316 19.677 30.8601 19.6682 31.3259C19.6595 31.6951 19.6595 32.0554 19.6682 32.4246C19.677 33.0574 19.9583 33.2244 20.8723 33.2507C21.5491 33.2683 21.2063 32.7937 21.2678 32.53C21.303 32.3367 21.2591 32.117 21.2678 31.9148Z" fill="#06306F"/>
<path d="M31.7798 28.9629C31.7798 30.3076 31.7974 31.6611 31.771 33.0059C31.7535 34.043 31.5074 34.9834 30.5054 35.5371C30.1011 35.7568 29.6617 35.8799 29.2046 35.8887C28.1939 35.9063 27.1831 35.8887 26.1724 35.9063C25.9263 35.9063 25.8736 35.8184 25.8824 35.5986C25.8999 35.2295 25.8736 34.8692 25.8911 34.5C25.9087 33.7969 26.4449 33.2608 27.148 33.2344C27.605 33.2168 28.0533 33.2256 28.5103 33.2344C28.8794 33.2344 29.0816 33.085 29.0816 32.6895C29.0816 32.2852 28.8882 32.1445 28.5191 32.1358C27.9038 32.1182 27.2886 32.2061 26.6822 32.0303C25.6363 31.7227 24.8716 30.8526 24.8452 29.7715C24.7925 28.0576 24.8277 26.3438 24.8189 24.6299C24.8189 24.4365 24.8804 24.375 25.0738 24.3838C25.7945 24.3926 26.5064 24.4014 27.2271 24.3838C27.5435 24.375 27.4995 24.5508 27.4995 24.7442C27.4995 26.0362 27.4995 27.3194 27.4995 28.6113C27.4995 29.1738 27.7632 29.4727 28.2554 29.4902C28.8355 29.5078 29.0904 29.2705 29.0904 28.6817C29.0904 27.3809 29.0992 26.0713 29.0816 24.7705C29.0816 24.4629 29.1607 24.375 29.4683 24.3838C30.1099 24.4102 30.7603 24.419 31.4019 24.3838C31.7535 24.3662 31.8062 24.4981 31.7974 24.8057C31.771 26.1856 31.7798 27.5742 31.7798 28.9629Z" fill="#06306F"/>
<path d="M9.38536 30.9568C9.38536 29.5242 9.38536 28.0828 9.38536 26.6502C9.38536 25.2439 10.2467 24.365 11.6617 24.3826C12.5846 24.3914 13.5074 24.2771 14.4215 24.4529C15.5904 24.6814 16.3287 25.5867 16.3375 26.7908C16.3463 28.0652 16.3375 29.3396 16.3375 30.614C16.3375 32.2136 15.3971 33.1892 13.7975 33.2332C13.3141 33.2507 12.8307 33.242 12.3473 33.2332C12.1275 33.2244 12.0309 33.2947 12.0397 33.532C12.0572 33.8836 12.0484 34.2351 12.0397 34.5867C12.0221 35.3425 11.4859 35.8875 10.7389 35.8963C10.2994 35.905 9.74571 36.0808 9.46446 35.8259C9.20079 35.5886 9.39415 35.0261 9.38536 34.6043C9.37657 33.3914 9.38536 32.1697 9.38536 30.9568ZM12.0397 28.8035C12.0397 29.0847 12.0397 29.3572 12.0397 29.6384C12.0397 30.6316 12.0397 30.6316 13.0328 30.5437C13.4635 30.5086 13.6656 30.2976 13.6744 29.867C13.6832 29.3748 13.6568 28.8738 13.6832 28.3816C13.7359 26.9578 13.4723 27.0984 12.3121 27.0896C12.1012 27.0896 12.0309 27.1511 12.0309 27.3621C12.0484 27.8367 12.0397 28.3201 12.0397 28.8035Z" fill="#06306F"/>
<path d="M34.2672 30.9754C34.2672 29.8065 34.2584 28.6287 34.276 27.4598C34.276 27.1873 34.2145 27.0731 33.9156 27.0819C33.5201 27.0994 32.9928 27.2137 32.773 27.0203C32.5006 26.7654 32.7115 26.2205 32.6764 25.7987C32.6764 25.7723 32.6764 25.7371 32.6764 25.7108C32.6764 25.2977 32.5445 24.8143 32.7203 24.5067C32.8961 24.199 33.4322 24.3924 33.8102 24.2957C34.5572 24.1024 35.1197 23.6717 35.5768 23.074C35.8932 22.6697 36.2887 22.3797 36.7984 22.283C37.0709 22.2303 37.2379 22.2654 37.2203 22.617C37.194 23.1092 37.2203 23.6102 37.2115 24.1112C37.2027 24.3221 37.2818 24.3924 37.4928 24.3836C37.8443 24.3748 38.1959 24.3924 38.5475 24.3748C38.7584 24.366 38.8287 24.4451 38.8199 24.6561C38.8111 25.3768 38.8111 26.0887 38.8199 26.8094C38.8199 27.0115 38.7672 27.117 38.5475 27.0906C38.5035 27.0819 38.4596 27.0906 38.4156 27.0906C38.0289 27.1258 37.4928 26.9149 37.2906 27.1785C37.0973 27.4246 37.2203 27.9344 37.2203 28.3299C37.2203 30.7205 37.2115 33.1024 37.2291 35.493C37.2291 35.827 37.1412 35.9324 36.8072 35.9061C36.4908 35.8797 36.1656 35.9061 35.8404 35.8973C34.8912 35.8621 34.2672 35.2205 34.2672 34.2713C34.2672 33.1727 34.2672 32.074 34.2672 30.9754Z" fill="#02B9EF"/>
</svg>
